<svg
  width="300"
  height="75"
  viewBox="0 0 300 75"
  fill="none"
  xmlns="http://www.w3.org/2000/svg"
>
  <path
    fill-rule="evenodd"
    clip-rule="evenodd"
    d="M26.8755 6.00478C39.33 5.78985 47.4272 12.8506 50.9901 21.5399C52.9006 26.2078 53.4514 32.8514 51.7591 38.2563C50.9206 40.8901 49.6708 43.3747 48.056 45.6179C46.508 47.7864 44.5499 49.5702 42.5885 51.3568L42.5885 51.3569L42.5884 51.3569C40.7857 52.9991 38.9802 54.6437 37.488 56.5918C37.4363 56.6594 37.3647 56.7505 37.2784 56.8605C36.5282 57.816 34.6596 60.196 34.9137 60.927C36.7 61.7373 37.426 64.8911 36.1778 66.7984C35.0108 68.5799 30.8254 70.0287 26.7848 69.8233C24.0926 69.6864 21.8001 69.1865 20.2829 67.6549C19.5394 66.9099 18.5316 64.1365 20.8242 64.7654C20.9947 65.0015 21.1141 65.2577 21.231 65.5086C21.4295 65.9346 21.6209 66.3454 22.0437 66.6169C24.1038 67.9415 28.8735 67.9686 31.4367 67.0691L31.4739 67.056C32.5522 66.6763 34.8388 65.8712 34.417 64.1779C34.1241 62.9828 32.6266 62.3994 31.4616 61.9455C31.3602 61.906 31.2614 61.8675 31.1661 61.8297C29.9562 61.3499 28.5948 60.9886 27.2243 60.6248C25.1791 60.0821 23.1137 59.5339 21.5008 58.5787C20.2733 57.8511 18.5555 56.8115 18.9281 54.5588C19.4402 51.4541 22.1756 50.7372 24.9972 49.9978C25.596 49.8408 26.1986 49.6829 26.7848 49.5009C29.1983 48.7526 31.2106 47.8293 32.9714 46.476C34.8628 45.0225 35.6779 42.9401 34.5985 40.0171C34.1766 38.874 33.4841 37.8424 32.8361 36.9015C32.7732 36.9422 32.7103 36.9831 32.6474 37.024L32.6465 37.0246L32.6465 37.0246C31.8668 37.5314 31.0833 38.0407 30.0819 38.3471C28.6411 38.7849 26.6829 38.6113 25.4299 38.1656C22.7235 37.2104 20.9722 35.2203 20.3274 32.205C20.1409 31.3379 20.1251 30.4111 20.1095 29.4989C20.0947 28.6358 20.0802 27.7858 19.9215 27.0117C19.6031 25.7317 19.2847 24.4523 18.9663 23.1733C18.9679 23.1731 18.9695 23.1729 18.9711 23.1726C18.9679 23.1681 18.9653 23.1635 18.9633 23.1589C20.1284 23.1516 21.2386 23.1212 22.2936 23.0923C25.9603 22.9921 28.9599 22.9101 31.2804 23.8767C32.7893 24.4449 33.9601 25.4117 34.7589 27.0369C34.8385 27.177 34.9161 27.3219 34.9917 27.4717C35.2775 28.0389 35.4818 28.778 35.5934 29.5821C35.6059 29.6428 35.6182 29.7041 35.6301 29.766C35.7634 30.4563 35.7536 31.1847 35.6577 31.8698C35.5401 33.3154 35.1118 34.6622 34.3135 35.3523C34.3065 35.3523 34.2886 35.3844 34.2702 35.4173C34.2669 35.4233 34.2636 35.4292 34.2603 35.435C34.2539 35.4798 34.2566 35.5177 34.2705 35.5467L35.0841 36.6308C35.7168 37.5642 36.2464 38.5635 36.6634 39.6111C38.7824 45.0113 35.135 48.2448 31.8315 50.1329C30.3909 50.9575 28.6934 51.4843 26.9894 52.0132L26.9893 52.0132C25.8573 52.3646 24.7224 52.7168 23.658 53.1578C23.6223 53.1726 23.584 53.1882 23.5436 53.2048C22.7874 53.5138 21.2798 54.1299 21.7619 55.1893C22.0648 55.8207 22.9085 56.1515 23.6364 56.437C23.7693 56.4891 23.8983 56.5396 24.0194 56.5903C25.1902 57.0783 26.4456 57.4551 27.7307 57.8407C28.0427 57.9344 28.3566 58.0286 28.6713 58.125L31.5609 59.1184C31.8305 57.7083 33.0745 56.1791 34.0509 54.9788C34.2794 54.6978 34.4932 54.435 34.6765 54.1958C36.1889 52.2292 37.9947 50.55 39.7986 48.8726L39.7986 48.8726C41.8134 46.999 43.8259 45.1276 45.4244 42.8605C46.6375 41.1427 47.5768 39.0619 48.2693 36.8553C48.5113 35.6507 48.7523 34.4466 48.9921 33.243C49.5509 30.1719 48.7963 26.7538 48.0894 24.5266C45.9418 17.7556 41.328 13.3918 34.9026 10.8876C31.1215 9.41493 24.9571 9.46588 21.1282 10.843C14.663 13.169 9.92029 17.805 7.8172 24.5202C6.88108 27.5132 6.43054 32.1413 7.32049 35.6295C8.67531 40.9357 11.4725 45.1355 15.3603 47.912C16.4081 48.654 17.5096 49.3171 18.6558 49.8957L20.3274 50.6631H20.2351C20.0941 50.7716 19.9501 50.8768 19.8062 50.982C18.9299 51.6225 18.0578 52.2601 17.8869 53.5988C16.1015 53.2383 13.7472 51.337 12.2516 50.1291C12.0895 49.9982 11.9374 49.8754 11.7973 49.7636C6.28725 45.3743 1.05581 35.6263 3.71292 25.1968C4.26855 23.0173 4.98656 20.8633 6.01661 19.1009C9.20069 13.645 13.426 9.82886 19.654 7.40418C20.9571 6.89744 22.4095 6.61976 23.8972 6.33533C24.0781 6.30074 24.2596 6.26606 24.4413 6.23085L26.8803 6.00478H26.8755ZM18.9633 23.1589C18.9626 23.1573 18.962 23.1557 18.9615 23.1541L18.9599 23.1589C18.961 23.1589 18.9622 23.1589 18.9633 23.1589ZM64.3113 66.498H75.0783V40.857C75.0783 38.304 75.1893 35.751 75.7443 33.531C77.8533 25.539 83.6253 18.768 91.8393 18.768C100.497 18.768 101.607 25.539 101.607 32.865V66.498H112.374V40.857C112.374 37.971 112.596 35.418 113.151 33.087C115.149 25.428 121.032 18.768 128.913 18.768C137.349 18.768 138.903 24.984 138.903 32.865V66.498H149.67V30.534C149.67 16.215 143.787 9 131.133 9C122.031 9 114.261 14.994 111.153 21.765H110.931C109.044 13.329 103.494 9 94.0593 9C85.2903 9 77.4093 15.327 74.7453 21.876H74.5233C74.5233 21.876 74.7453 19.989 74.7453 17.769V10.332H64.3113V66.498ZM152.671 38.415C152.671 55.287 165.103 67.83 182.752 67.83C197.404 67.83 205.174 58.839 205.174 58.839L200.845 50.958C200.845 50.958 193.963 58.506 183.529 58.506C171.874 58.506 163.66 49.737 163.66 38.304C163.66 26.76 171.874 18.324 183.196 18.324C192.742 18.324 198.736 24.762 198.736 24.762L203.842 17.214C203.842 17.214 196.849 9 182.752 9C165.103 9 152.671 21.765 152.671 38.415ZM230.026 67.83C216.262 67.83 208.714 59.616 208.714 59.616L213.931 51.957C213.931 51.957 220.258 58.506 230.026 58.506C234.688 58.506 239.35 56.064 239.35 51.513C239.35 47.0863 234.043 44.9457 227.981 42.5003C219.906 39.2431 210.49 35.4452 210.49 24.984C210.49 14.772 219.592 9 230.803 9C243.124 9 248.896 15.216 248.896 15.216L244.567 23.319C244.567 23.319 239.572 18.324 230.692 18.324C226.03 18.324 221.479 20.322 221.479 25.206C221.479 29.5032 226.703 31.5704 232.705 33.9461C240.811 37.1547 250.339 40.9258 250.339 51.513C250.339 60.837 242.347 67.83 230.026 67.83ZM255.364 59.616C255.364 59.616 262.912 67.83 276.676 67.83C288.997 67.83 296.989 60.837 296.989 51.513C296.989 40.9258 287.461 37.1547 279.355 33.9461C273.352 31.5704 268.129 29.5032 268.129 25.206C268.129 20.322 272.68 18.324 277.342 18.324C286.222 18.324 291.217 23.319 291.217 23.319L295.546 15.216C295.546 15.216 289.774 9 277.453 9C266.242 9 257.14 14.772 257.14 24.984C257.14 35.4452 266.556 39.2431 274.631 42.5003C280.693 44.9457 286 47.0863 286 51.513C286 56.064 281.338 58.506 276.676 58.506C266.908 58.506 260.581 51.957 260.581 51.957L255.364 59.616Z"
    fill="white"
  />
</svg>
